<svg width="18" height="20" viewBox="0 0 18 20" fill="none" xmlns="http://www.w3.org/2000/svg">
<path d="M8.43356 10.7766C8.45427 10.7766 8.47498 10.7766 8.49983 10.7766C8.50811 10.7766 8.51639 10.7766 8.52468 10.7766C8.5371 10.7766 8.55367 10.7766 8.56609 10.7766C9.77959 10.7559 10.7612 10.3293 11.486 9.51336C13.0805 7.71588 12.8154 4.6345 12.7864 4.34044C12.6829 2.13295 11.6392 1.07683 10.7777 0.583972C10.1358 0.215366 9.38614 0.0165666 8.54953 0H8.52053C8.51639 0 8.50811 0 8.50397 0H8.47912C8.0194 0 7.11652 0.0745496 6.25091 0.567405C5.38117 1.06026 4.32091 2.11638 4.21737 4.34044C4.18837 4.6345 3.92331 7.71588 5.51784 9.51336C6.23849 10.3293 7.22006 10.7559 8.43356 10.7766ZM5.32319 4.44398C5.32319 4.43156 5.32733 4.41913 5.32733 4.41085C5.464 1.44129 7.5721 1.12239 8.47498 1.12239H8.49154C8.49983 1.12239 8.51225 1.12239 8.52468 1.12239C9.64292 1.14724 11.5439 1.60282 11.6723 4.41085C11.6723 4.42328 11.6723 4.4357 11.6765 4.44398C11.6806 4.47298 11.9705 7.28929 10.6535 8.772C10.1316 9.36012 9.43584 9.65003 8.52053 9.65831C8.51225 9.65831 8.50811 9.65831 8.49983 9.65831C8.49154 9.65831 8.4874 9.65831 8.47912 9.65831C7.56796 9.65003 6.86802 9.36012 6.35031 8.772C5.03741 7.29758 5.31904 4.46883 5.32319 4.44398Z" fill="black"/>
<path d="M17.0109 15.8873C17.0109 15.8832 17.0109 15.879 17.0109 15.8749C17.0109 15.8418 17.0067 15.8086 17.0067 15.7714C16.9819 14.9513 16.928 13.0337 15.1306 12.4208C15.1181 12.4166 15.1016 12.4125 15.0891 12.4083C13.2213 11.932 11.6681 10.8552 11.6516 10.8428C11.3989 10.6647 11.051 10.7268 10.8729 10.9795C10.6949 11.2321 10.757 11.58 11.0096 11.7581C11.08 11.8078 12.7284 12.955 14.7909 13.4852C15.7559 13.8289 15.8636 14.8602 15.8926 15.8045C15.8926 15.8418 15.8926 15.8749 15.8968 15.908C15.9009 16.2808 15.876 16.8565 15.8098 17.1878C15.1388 17.5688 12.5089 18.8859 8.50806 18.8859C4.5238 18.8859 1.87729 17.5647 1.2022 17.1837C1.13594 16.8523 1.10695 16.2766 1.11523 15.9039C1.11523 15.8708 1.11937 15.8376 1.11937 15.8004C1.14836 14.8561 1.25605 13.8248 2.22105 13.481C4.28359 12.9509 5.93196 11.7995 6.00237 11.754C6.25501 11.5759 6.31713 11.228 6.13904 10.9753C5.96095 10.7227 5.61306 10.6606 5.36041 10.8387C5.34385 10.8511 3.79902 11.9279 1.92285 12.4042C1.90628 12.4083 1.89386 12.4125 1.88143 12.4166C0.0839602 13.0337 0.0301188 14.9513 0.00526895 15.7672C0.00526895 15.8045 0.00526885 15.8376 0.00112721 15.8708C0.00112721 15.8749 0.00112721 15.879 0.00112721 15.8832C-0.00301444 16.0985 -0.00715599 17.2044 0.212351 17.7594C0.253768 17.867 0.328317 17.9582 0.427717 18.0203C0.551966 18.1031 3.52981 20 8.51221 20C13.4946 20 16.4724 18.099 16.5967 18.0203C16.692 17.9582 16.7706 17.867 16.8121 17.7594C17.0191 17.2085 17.015 16.1027 17.0109 15.8873Z" fill="black"/>
</svg>
